#N canvas 847 86 493 368 10;
#X obj 201 125 list;
#X obj 203 154 route symbol;
#N canvas 902 504 538 396 EEGrecording 0;
#X obj 304 116 textfile;
#X text 364 24 User number;
#X obj 327 -12 f;
#X obj 375 -5 + 1;
#X floatatom 327 24 5 0 0 0 - - -;
#X msg 376 -38 0;
#X text 296 -50 stop;
#X text 342 -81 reset;
#X msg 258 2 clear;
#X text 221 -29 start;
#X obj 327 -49 r stop;
#X obj 376 -80 r reset;
#X obj 341 57 s userID;
#X obj 165 -75 r EEG;
#X obj 259 -26 r play;
#X obj 61 -31 metro 1000;
#X obj 61 -56 loadbang;
#X msg 190 51 add \$1 \$2;
#X obj 206 125 s Att;
#X obj 137 125 s Med;
#X obj 137 11 \$1 \$2;
#X obj 137 96 unpack \$1 \$2;
#X text 69 97 Monitoring;
#X text 23 -77 Downsampling (1hz);
#X msg 304 84 write user\$1EEG.txt;
#X connect 2 0 3 0;
#X connect 2 0 4 0;
#X connect 3 0 2 1;
#X connect 4 0 24 0;
#X connect 4 0 12 0;
#X connect 5 0 2 1;
#X connect 8 0 0 0;
#X connect 10 0 2 0;
#X connect 11 0 5 0;
#X connect 13 0 20 1;
#X connect 14 0 8 0;
#X connect 15 0 20 0;
#X connect 16 0 15 0;
#X connect 17 0 0 0;
#X connect 20 0 17 0;
#X connect 20 0 21 0;
#X connect 21 0 19 0;
#X connect 21 1 18 0;
#X connect 24 0 0 0;
#X restore 24 19 pd EEGrecording;
#N canvas 913 448 450 300 EEGreceive 0;
#X obj 17 49 mrpeach/unpackOSC;
#X obj 152 82 outlet;
#X obj 152 48 route from;
#X obj 17 213 s EEG;
#X obj 17 125 mrpeach/routeOSC /BrainWave;
#X obj 17 153 mrpeach/routeOSC /Meditation /Attention;
#X obj 17 182 pack f f;
#X obj 209 233 print;
#X obj 17 19 mrpeach/udpreceive 5000;
#X connect 0 0 4 0;
#X connect 2 0 1 0;
#X connect 4 0 5 0;
#X connect 5 0 6 0;
#X connect 5 1 6 1;
#X connect 6 0 3 0;
#X connect 8 0 0 0;
#X connect 8 1 2 0;
#X restore 24 -32 pd EEGreceive;
#X obj 24 -4 tgl 15 0 empty empty empty 17 7 0 10 -262144 -1 -1 0 127
;
#X obj 127 40 bng 15 250 50 0 stop empty empty 17 7 0 10 -262144 -1
-1;
#X text 146 38 stop;
#X obj 127 61 bng 15 250 50 0 reset empty empty 17 7 0 10 -262144 -1
-1;
#X text 146 59 reset;
#N canvas 589 413 781 487 EEGsend 0;
#X obj 156 18 r userID;
#X obj 156 129 sendOSC;
#X msg 164 97 connect localhost 12000;
#X msg 156 52 send /user\$1.txt;
#X obj 164 74 r connect;
#X obj 156 161 s connected;
#X connect 0 0 3 0;
#X connect 1 0 5 0;
#X connect 2 0 1 0;
#X connect 3 0 1 0;
#X connect 4 0 2 0;
#X restore 24 42 pd EEGsend;
#X obj 128 81 bng 15 250 50 0 connect empty empty 17 7 0 10 -262144
-1 -1;
#X text 147 79 connect to Processing;
#X obj 24 67 tgl 15 0 empty connected empty 17 7 0 10 -262144 -1 -1
0 1;
#X floatatom 22 90 5 0 0 0 UserID userID -;
#X text 20 -60 NeuroKnitting EEG recording;
#X text -96 -103 1 Check that the built-in input is set as INPUT in
the preferences;
#X obj 127 19 tgl 15 0 empty play_stop empty 17 7 0 10 -262144 -1 -1
0 1;
#X text 144 19 Recording;
#N canvas 426 46 657 556 Soundreceive 0;
#X obj 266 25 adc~;
#X obj 392 313 bng 15 250 50 0 empty empty empty 17 7 0 10 -262144
-1 -1;
#X obj 369 270 spigot;
#X msg 462 214 0;
#X floatatom 402 241 5 0 0 0 - - -;
#X obj 392 350 s play;
#X msg 402 204 1;
#X obj 402 174 r stop;
#X obj 245 152 env~ 4096;
#X obj 187 204 smooth;
#X obj 172 243 f;
#X obj 110 187 metro 1000;
#X obj 110 160 loadbang;
#X obj 172 476 textfile;
#X msg 172 372 add \$1;
#X obj 369 238 bng 15 250 50 0 empty empty empty 17 7 0 10 -262144
-1 -1;
#X obj 172 278 maxlib/scale 0 100 0 1;
#X obj 172 331 spigot;
#X obj 452 367 == 0;
#X msg 126 426 clear;
#X obj 126 394 r play;
#X obj 193 404 r userID;
#X text 301 25 Read from Line-in;
#X text 309 152 envelope estimation;
#X text 108 278 scale 0-1;
#X obj 556 108 loadbang;
#X obj 496 170 delay 500;
#X obj 324 208 moses 45;
#X obj 386 447 s audio;
#X obj 276 78 output~;
#X msg 193 433 write user\$1music.txt;
#X connect 0 0 8 0;
#X connect 0 0 29 0;
#X connect 0 0 29 1;
#X connect 1 0 3 0;
#X connect 1 0 5 0;
#X connect 2 0 1 0;
#X connect 3 0 4 0;
#X connect 4 0 2 1;
#X connect 4 0 18 0;
#X connect 6 0 4 0;
#X connect 7 0 6 0;
#X connect 8 0 9 0;
#X connect 8 0 27 0;
#X connect 9 0 10 1;
#X connect 10 0 16 0;
#X connect 11 0 10 0;
#X connect 12 0 11 0;
#X connect 14 0 13 0;
#X connect 15 0 2 0;
#X connect 16 0 17 0;
#X connect 17 0 14 0;
#X connect 17 0 28 0;
#X connect 18 0 17 1;
#X connect 19 0 13 0;
#X connect 20 0 19 0;
#X connect 21 0 30 0;
#X connect 25 0 26 0;
#X connect 26 0 6 0;
#X connect 27 1 15 0;
#X connect 30 0 13 0;
#X restore -85 -32 pd Soundreceive;
#X floatatom 2 136 5 0 0 0 - Med -;
#X floatatom 4 164 5 0 0 0 - Att -;
#X text -61 164 Attention;
#X text 43 -6 connected to MW;
#X floatatom 4 194 5 0 0 0 - audio -;
#X text -39 195 Audio;
#X text -66 135 Relaxation;
#X connect 3 0 4 0;
