#N canvas 746 3 688 544 10;
#X obj 568 489 list;
#X obj 570 518 route symbol;
#X obj 393 223 bng 15 250 50 0 clear empty empty 17 7 0 10 -262144
-1 -1;
#N canvas 770 99 538 396 EEGrecording 0;
#X obj 194 66 textfile;
#X text 254 -26 User number;
#X obj 217 -62 f;
#X obj 265 -55 + 1;
#X floatatom 217 -26 5 0 0 0 - - -;
#X msg 266 -88 0;
#X text 186 -100 stop;
#X text 232 -131 reset;
#X msg 148 -48 clear;
#X text 111 -79 start;
#X obj 148 -77 r clear;
#X obj 217 -99 r stop;
#X obj 266 -130 r reset;
#X obj 231 7 s userID;
#X obj 132 27 r EEG;
#X msg 194 34 write /nk/user\$1EEG.txt;
#X connect 2 0 3 0;
#X connect 2 0 4 0;
#X connect 3 0 2 1;
#X connect 4 0 15 0;
#X connect 4 0 13 0;
#X connect 5 0 2 1;
#X connect 8 0 0 0;
#X connect 10 0 8 0;
#X connect 11 0 2 0;
#X connect 12 0 5 0;
#X connect 14 0 0 0;
#X connect 15 0 0 0;
#X restore 290 222 pd EEGrecording;
#N canvas 894 0 496 388 EEGreceive 0;
#X obj 17 19 mrpeach/udpreceive 7400;
#X obj 17 49 mrpeach/unpackOSC;
#X obj 18 164 pack f f f;
#X msg 18 200 add \$1 \$2 \$3;
#X obj 152 82 outlet;
#X obj 152 48 route from;
#X obj 105 253 s EEG;
#X obj 199 245 spigot;
#X floatatom 195 206 5 0 0 0 - - -;
#X obj 60 253 print;
#X msg 416 137 bang;
#X obj 238 174 temperature 10;
#X obj 402 172 metro 10;
#X obj 17 126 mrpeach/routeOSC /AFF/Frustration /AFF/Meditation /AFF/Excitement
;
#X connect 0 0 1 0;
#X connect 0 1 5 0;
#X connect 1 0 13 0;
#X connect 2 0 3 0;
#X connect 3 0 6 0;
#X connect 5 0 4 0;
#X connect 8 0 7 1;
#X connect 10 0 12 0;
#X connect 11 0 8 0;
#X connect 12 0 11 0;
#X connect 13 0 2 0;
#X connect 13 1 2 1;
#X connect 13 2 2 2;
#X restore 290 171 pd EEGreceive;
#X text 411 221 start;
#X obj 290 199 tgl 15 0 empty empty empty 17 7 0 10 -262144 -1 -1 127
127;
#X text 309 197 connected to Emotiv;
#X obj 393 243 bng 15 250 50 0 stop empty empty 17 7 0 10 -262144 -1
-1;
#X text 412 241 stop;
#X obj 393 264 bng 15 250 50 0 reset empty empty 17 7 0 10 -262144
-1 -1;
#X text 412 262 reset;
#N canvas 501 280 781 487 EEGsend 0;
#X obj 156 18 r userID;
#X obj 156 192 sendOSC;
#X msg 251 150 connect localhost 12000;
#X obj 251 127 r connect;
#X obj 156 224 s connected;
#X msg 301 74 send /nk/user\$1song.txt;
#X msg 156 75 send /nk/user\$1EEG.txt;
#X connect 0 0 6 0;
#X connect 0 0 5 0;
#X connect 1 0 4 0;
#X connect 2 0 1 0;
#X connect 3 0 2 0;
#X connect 5 0 1 0;
#X connect 6 0 1 0;
#X restore 290 245 pd EEGsend;
#X obj 394 284 bng 15 250 50 0 connect empty empty 17 7 0 10 -262144
-1 -1;
#X text 413 282 connect to Processing;
#X obj 430 303 tgl 15 0 empty connected empty 17 7 0 10 -262144 -1
-1 0 1;
#X floatatom 290 267 5 0 0 0 UserID userID -;
#N canvas 434 91 848 529 LoadSound 0;
#X obj -13 105 soundfiler;
#X obj -13 53 openpanel;
#X obj -13 29 inlet;
#N canvas 0 22 450 300 (subpatch) 0;
#X array waveform 7.57146e+006 float 2;
#X coords 0 1 7.57146e+006 -1 200 140 1 0 0;
#X restore -12 174 graph;
#X obj 706 328 r userID;
#X obj 501 126 dac~;
#X obj 579 70 tabplay~ waveform;
#X msg 154 78 \; waveform write /nk/user\$1_song.txt;
#X obj 667 24 bng 15 250 50 0 empty empty empty 17 7 0 10 -262144 -1
-1;
#X obj 583 -29 r clear;
#X msg 156 121 \; waveform normalize 1;
#X floatatom -13 134 20 0 0 0 - - -;
#X msg -13 79 read -resize \$1 waveform;
#X obj 544 166 snapshot~;
#X floatatom 544 198 5 0 0 0 - - -;
#X msg 579 16 stop;
#X msg 534 17 0;
#X floatatom 562 384 5 0 0 0 - - -;
#X obj 547 463 textfile;
#X msg 494 385 clear;
#X obj 384 407 pack f;
#X msg 425 444 add \$1;
#X msg 611 384 write /nk/user\$1music.txt;
#X obj 528 338 maxlib/scale -1 1 0 1 0;
#X obj 613 116 metro 200;
#X connect 0 0 11 0;
#X connect 1 0 12 0;
#X connect 2 0 1 0;
#X connect 4 0 22 0;
#X connect 6 0 13 0;
#X connect 6 0 5 0;
#X connect 6 0 5 1;
#X connect 8 0 6 0;
#X connect 8 0 24 0;
#X connect 9 0 8 0;
#X connect 9 0 19 0;
#X connect 12 0 0 0;
#X connect 13 0 14 0;
#X connect 14 0 23 0;
#X connect 15 0 6 0;
#X connect 16 0 6 0;
#X connect 17 0 20 0;
#X connect 19 0 18 0;
#X connect 20 0 21 0;
#X connect 21 0 18 0;
#X connect 22 0 18 0;
#X connect 23 0 17 0;
#X connect 24 0 13 0;
#X restore 33 293 pd LoadSound;
#X text 50 205 load sound file;
#X obj 33 206 bng 15 250 50 0 empty empty empty 17 7 0 10 -262144 -1
-1;
#X text 29 179 LOAD AND PLOT SOUND;
#X text 10 12 NeuroKnitting EEG recording (sept2013);
#X text 286 146 CONNECT TO EMOTIV AND RECORD EEG;
#X text 448 301 connected to Processing;
#X obj 136 407 mrpeach/udpreceive 12000;
#X obj 136 436 mrpeach/unpackOSC;
#X obj 136 465 print;
#X connect 4 0 6 0;
#X connect 19 0 17 0;
#X connect 24 0 25 0;
#X connect 25 0 26 0;
